<?xml version="1.0" standalone="no"?>
<!DOCTYPE svg PUBLIC "-//W3C//DTD SVG 20010904//EN"
 "http://www.w3.org/TR/2001/REC-SVG-20010904/DTD/svg10.dtd">
<svg version="1.0" xmlns="http://www.w3.org/2000/svg"
 width="800.000000pt" height="800.000000pt" viewBox="0 0 800.000000 800.000000"
 preserveAspectRatio="xMidYMid meet">

<g transform="translate(0.000000,800.000000) scale(0.100000,-0.100000)"
fill="#000000" stroke="none">
<path d="M7525 7986 c-511 -98 -1270 -534 -2056 -1181 l-135 -112 -424 89
c-233 48 -425 90 -427 92 -3 2 1 31 8 65 16 84 8 209 -17 252 -25 44 -94 79
-154 79 -108 0 -281 -76 -436 -192 -44 -32 -86 -58 -94 -58 -18 0 -303 61
-309 66 -2 2 9 45 24 96 34 109 38 215 12 265 -29 55 -62 73 -131 73 -116 -1
-270 -76 -462 -226 l-94 -74 -643 136 -642 135 -337 -343 c-185 -189 -337
-345 -337 -348 -1 -3 256 -137 570 -299 314 -162 577 -300 584 -305 12 -9 9
-26 -20 -102 -67 -177 -70 -297 -11 -362 28 -30 40 -36 87 -40 98 -8 253 59
420 180 l67 48 138 -72 c77 -39 141 -73 143 -75 3 -2 -7 -40 -22 -86 -40 -124
-50 -182 -45 -271 5 -92 22 -134 70 -167 43 -31 135 -37 214 -14 79 23 219 96
316 165 l79 57 192 -99 c106 -55 196 -103 200 -108 5 -4 -85 -115 -200 -247
-659 -755 -1232 -1446 -1598 -1930 -132 -174 -164 -212 -185 -212 -14 -1 -324
33 -689 75 l-663 76 -254 -253 c-140 -140 -253 -258 -251 -262 1 -5 268 -159
592 -343 325 -185 593 -339 597 -343 5 -4 -12 -52 -36 -106 -88 -201 -122
-349 -104 -460 32 -211 251 -243 613 -90 61 26 116 47 124 48 8 1 144 -229
355 -600 l341 -602 259 258 259 259 -77 664 c-42 364 -76 674 -76 688 0 21 33
50 193 170 237 179 667 523 1013 811 423 352 1015 861 1127 968 41 39 49 43
61 31 7 -8 56 -99 108 -202 l95 -188 -58 -81 c-70 -98 -141 -233 -164 -313
-25 -84 -17 -173 18 -219 57 -75 219 -88 397 -32 47 14 94 28 105 31 17 4 30
-16 92 -137 l72 -142 -59 -81 c-150 -208 -205 -381 -147 -467 34 -50 69 -64
162 -63 65 1 99 8 185 38 58 20 111 38 119 39 10 1 83 -130 214 -383 109 -212
246 -476 304 -588 l105 -204 25 24 c14 13 168 169 343 348 l318 326 -134 637
-134 638 63 82 c87 110 152 213 195 305 28 61 36 93 40 154 l5 78 -40 39 c-30
30 -50 41 -86 46 -54 8 -150 -7 -242 -37 -35 -12 -67 -20 -69 -17 -5 5 -66
293 -66 312 0 7 27 48 60 92 69 93 151 246 174 324 36 124 10 224 -69 265 -50
26 -150 32 -241 17 -36 -7 -68 -10 -70 -9 -2 2 -43 195 -92 428 l-90 425 46
55 c117 142 281 352 385 492 648 876 981 1645 846 1957 -25 60 -89 121 -146
140 -56 19 -217 23 -298 7z"/>
</g>
</svg>
